<svg width="19" height="18" viewBox="0 0 19 18" fill="none" xmlns="http://www.w3.org/2000/svg">
<g clip-path="url(#clip0_15_16198)">
<path d="M16.8925 8.91504H1.12958C0.508813 8.91504 0.00366211 9.39353 0.00366211 9.98153C0.00366211 10.5695 0.508813 11.048 1.12958 11.048H16.8925C17.5132 11.048 18.0184 10.5695 18.0184 9.98153C18.0184 9.39353 17.5132 8.91504 16.8925 8.91504ZM16.8925 10.337H1.12958C0.923151 10.337 0.754263 10.1777 0.754263 9.9815C0.754263 9.78526 0.923151 9.62599 1.12958 9.62599H16.8925C17.0989 9.62599 17.2678 9.78526 17.2678 9.9815C17.2678 10.1777 17.0989 10.337 16.8925 10.337Z" fill="#818181"/>
<path d="M16.996 10.3505C16.7926 10.2972 16.5884 10.4059 16.5321 10.5951L15.4978 14.0249C15.2689 14.7836 14.5265 15.314 13.6934 15.314H4.32943C3.49625 15.314 2.75466 14.7835 2.52497 14.0249L1.4906 10.5951C1.4343 10.4059 1.22939 10.2971 1.02672 10.3505C0.827047 10.4045 0.712203 10.6007 0.769273 10.7899L1.80361 14.2197C2.12411 15.2826 3.1622 16.0249 4.32943 16.0249H13.6926C14.8598 16.0249 15.8986 15.2826 16.2191 14.2197L17.2535 10.7899C17.3105 10.6015 17.1957 10.4045 16.996 10.3505Z" fill="#818181"/>
<path d="M4.32944 13.893C4.1628 13.893 4.01492 13.7863 3.9684 13.6349L3.48127 12.0181C3.42497 11.8297 3.21854 11.7195 3.01739 11.7735C2.81849 11.8275 2.70287 12.0238 2.75994 12.2129L3.24707 13.8297C3.3837 14.2855 3.82956 14.6033 4.32947 14.6033C4.53664 14.6033 4.70479 14.4447 4.70479 14.2485C4.70475 14.0523 4.5366 13.893 4.32944 13.893Z" fill="#818181"/>
<path d="M5.04998 15.3514C4.86459 15.2653 4.64015 15.3343 4.54631 15.5106L3.79571 16.9326C3.70338 17.1082 3.77843 17.3215 3.96386 17.4097C4.01864 17.4353 4.07571 17.4474 4.13201 17.4474C4.26937 17.4474 4.40149 17.3756 4.46753 17.2505L5.21813 15.8285C5.31046 15.6528 5.23537 15.4395 5.04998 15.3514Z" fill="#818181"/>
<path d="M14.2263 16.9333L13.4757 15.5113C13.3826 15.3349 13.1575 15.2645 12.972 15.352C12.7866 15.4401 12.7116 15.6534 12.8039 15.8291L13.5545 17.2511C13.6205 17.3755 13.7526 17.4473 13.89 17.4473C13.9463 17.4473 14.0033 17.4352 14.0582 17.4103C14.2436 17.3222 14.3186 17.1089 14.2263 16.9333Z" fill="#818181"/>
<path d="M15.0797 0.446289C14.6969 0.446289 14.3366 0.587766 14.0657 0.844457L12.8744 1.97281C12.7281 2.11145 12.7281 2.33685 12.8744 2.47549C13.0208 2.61414 13.2588 2.61414 13.4051 2.47549L14.5963 1.34784C14.7247 1.22556 14.8965 1.15801 15.0834 1.15801C15.4602 1.15801 15.7665 1.44809 15.7665 1.805V9.27045C15.7665 9.46668 15.9346 9.62596 16.1418 9.62596C16.349 9.62596 16.5171 9.46668 16.5179 9.26975V1.8043C16.5179 1.05562 15.8754 0.446289 15.0797 0.446289Z" fill="#818181"/>
<path d="M13.7811 2.32943L13.0305 1.61845C12.9442 1.5367 12.8249 1.499 12.704 1.5189L10.8275 1.81042C10.6894 1.83105 10.576 1.92347 10.5317 2.04931C10.4875 2.17516 10.5212 2.3138 10.6188 2.40835L12.8707 4.60533C12.9412 4.67572 13.0396 4.71341 13.1394 4.71341C13.1747 4.71341 13.2107 4.70844 13.2467 4.69918C13.3803 4.66222 13.4817 4.5577 13.5087 4.42829L13.884 2.65081C13.9087 2.5342 13.8697 2.41332 13.7811 2.32943ZM12.9112 3.62485L11.6569 2.40126L12.6349 2.24981L13.1071 2.69704L12.9112 3.62485Z" fill="#818181"/>
<path d="M8.90071 4.75437C8.75434 4.61573 8.51639 4.61573 8.37002 4.75437L7.61942 5.46536C7.47305 5.604 7.47305 5.8294 7.61942 5.96804C7.69299 6.037 7.78905 6.07186 7.88514 6.07186C7.98123 6.07186 8.07728 6.03703 8.15011 5.96804L8.90071 5.25706C9.04708 5.11838 9.04708 4.89302 8.90071 4.75437Z" fill="#818181"/>
<path d="M10.4019 6.17625C10.2556 6.0376 10.0176 6.0376 9.87125 6.17625L9.12064 6.88723C8.97427 7.02588 8.97427 7.25128 9.12064 7.38992C9.19421 7.45888 9.29027 7.49374 9.38636 7.49374C9.48245 7.49374 9.57851 7.45891 9.65134 7.38992L10.4019 6.67893C10.5483 6.54029 10.5483 6.31489 10.4019 6.17625Z" fill="#818181"/>
<path d="M11.1526 4.04246C11.0062 3.90382 10.7682 3.90382 10.6219 4.04246L9.87125 4.75345C9.72488 4.89209 9.72488 5.11749 9.87125 5.25613C9.94482 5.32509 10.0409 5.35995 10.137 5.35995C10.2331 5.35995 10.3291 5.32512 10.4019 5.25613L11.1526 4.54515C11.2989 4.4065 11.2989 4.1811 11.1526 4.04246Z" fill="#818181"/>
</g>
<defs>
<clipPath id="clip0_15_16198">
<rect width="18.0147" height="17.0639" fill="white" transform="translate(0.00366211 0.415039)"/>
</clipPath>
</defs>
</svg>
