<svg width="24" height="18" viewBox="0 0 24 18" fill="none" xmlns="http://www.w3.org/2000/svg">
<g clip-path="url(#clip0_15_16231)">
<path d="M6.13813 12.9129C6.42961 12.9129 6.6659 12.6891 6.6659 12.413C6.6659 12.1369 6.42961 11.9131 6.13813 11.9131C5.84664 11.9131 5.61035 12.1369 5.61035 12.413C5.61035 12.6891 5.84664 12.9129 6.13813 12.9129Z" fill="#818181"/>
<path d="M18.8046 12.9129C19.0961 12.9129 19.3324 12.6891 19.3324 12.413C19.3324 12.1369 19.0961 11.9131 18.8046 11.9131C18.5131 11.9131 18.2769 12.1369 18.2769 12.413C18.2769 12.6891 18.5131 12.9129 18.8046 12.9129Z" fill="#818181"/>
<path d="M21.857 8.45693L17.9722 7.89869L14.2517 4.99849C13.9052 4.72904 13.4708 4.58154 13.0225 4.58106H7.87006C7.57971 4.58038 7.29295 4.64191 7.03125 4.76105C6.76955 4.88019 6.53969 5.05385 6.35886 5.26903L4.12515 7.91385H2.61958C2.1998 7.9143 1.79734 8.07245 1.50051 8.35361C1.20368 8.63477 1.03672 9.01599 1.03625 9.41361V11.08C1.03683 11.566 1.24089 12.0319 1.60368 12.3756C1.96648 12.7192 2.45836 12.9125 2.97143 12.913H3.9132C4.03189 13.3875 4.31612 13.8101 4.71989 14.1125C5.12365 14.4149 5.62334 14.5795 6.13808 14.5795C6.65282 14.5795 7.1525 14.4149 7.55627 14.1125C7.96004 13.8101 8.24426 13.3875 8.36296 12.913H16.5798C16.6985 13.3875 16.9827 13.8101 17.3865 14.1125C17.7902 14.4149 18.2899 14.5795 18.8047 14.5795C19.3194 14.5795 19.8191 14.4149 20.2229 14.1125C20.6266 13.8101 20.9109 13.3875 21.0296 12.913H21.6195C22.0393 12.9126 22.4417 12.7545 22.7385 12.4733C23.0354 12.1921 23.2023 11.8109 23.2028 11.4133V9.93978C23.2047 9.5805 23.0696 9.23266 22.8223 8.96022C22.5751 8.68778 22.2323 8.50906 21.857 8.45693ZM13.5812 5.7707L16.3306 7.91385H11.2399V5.5809H13.0225C13.2263 5.58116 13.4237 5.64822 13.5812 5.7707ZM7.18316 5.89335C7.26538 5.79559 7.36988 5.71671 7.48883 5.6626C7.60778 5.60849 7.73811 5.58056 7.87006 5.5809H8.07325V7.91385H5.47691L7.18316 5.89335ZM6.13808 13.5796C5.89452 13.5796 5.65642 13.5112 5.45391 13.383C5.25139 13.2548 5.09355 13.0727 5.00034 12.8595C4.90714 12.6464 4.88275 12.4118 4.93027 12.1856C4.97778 11.9593 5.09507 11.7514 5.26729 11.5883C5.43952 11.4252 5.65895 11.3141 5.89783 11.2691C6.13671 11.2241 6.38432 11.2472 6.60934 11.3354C6.83437 11.4237 7.0267 11.5732 7.16201 11.7651C7.29733 11.9569 7.36955 12.1824 7.36955 12.4131C7.36918 12.7224 7.23932 13.0189 7.00845 13.2376C6.77759 13.4562 6.46457 13.5793 6.13808 13.5796ZM18.8047 13.5796C18.5611 13.5796 18.323 13.5112 18.1205 13.383C17.918 13.2548 17.7601 13.0727 17.6669 12.8595C17.5737 12.6464 17.5493 12.4118 17.5969 12.1856C17.6444 11.9593 17.7617 11.7514 17.9339 11.5883C18.1061 11.4252 18.3255 11.3141 18.5644 11.2691C18.8033 11.2241 19.0509 11.2472 19.2759 11.3354C19.501 11.4237 19.6933 11.5732 19.8286 11.7651C19.9639 11.9569 20.0361 12.1824 20.0361 12.4131C20.0358 12.7224 19.9059 13.0189 19.675 13.2376C19.4442 13.4562 19.1312 13.5793 18.8047 13.5796ZM22.1472 11.4133C22.1471 11.5458 22.0914 11.6729 21.9925 11.7666C21.8936 11.8603 21.7594 11.9131 21.6195 11.9132H21.0296C20.9109 11.4388 20.6266 11.0162 20.2229 10.7137C19.8191 10.4113 19.3194 10.2468 18.8047 10.2468C18.2899 10.2468 17.7902 10.4113 17.3865 10.7137C16.9827 11.0162 16.6985 11.4388 16.5798 11.9132H8.36296C8.24426 11.4388 7.96004 11.0162 7.55627 10.7137C7.1525 10.4113 6.65282 10.2468 6.13808 10.2468C5.62334 10.2468 5.12365 10.4113 4.71989 10.7137C4.31612 11.0162 4.03189 11.4388 3.9132 11.9132H2.97143C2.73822 11.913 2.51464 11.8251 2.34974 11.6689C2.18483 11.5127 2.09207 11.3009 2.0918 11.08V9.41361C2.09196 9.28107 2.14761 9.154 2.24655 9.06027C2.3455 8.96655 2.47965 8.91384 2.61958 8.91369H8.60103C8.741 8.91369 8.87524 8.86102 8.97422 8.76727C9.0732 8.67352 9.1288 8.54636 9.1288 8.41377V5.5809H10.1844V8.41377C10.1844 8.54636 10.24 8.67352 10.3389 8.76727C10.4379 8.86102 10.5722 8.91369 10.7121 8.91369H17.9991L21.6986 9.44544C21.8232 9.46403 21.9367 9.52396 22.0189 9.61452C22.101 9.70508 22.1465 9.82036 22.1472 9.93978V11.4133Z" fill="#818181"/>
<path d="M11.4158 9.24707H10.7121C10.5721 9.24707 10.4379 9.29974 10.3389 9.39349C10.2399 9.48725 10.1843 9.6144 10.1843 9.74699C10.1843 9.87958 10.2399 10.0067 10.3389 10.1005C10.4379 10.1942 10.5721 10.2469 10.7121 10.2469H11.4158C11.5558 10.2469 11.69 10.1942 11.789 10.1005C11.888 10.0067 11.9436 9.87958 11.9436 9.74699C11.9436 9.6144 11.888 9.48725 11.789 9.39349C11.69 9.29974 11.5558 9.24707 11.4158 9.24707Z" fill="#818181"/>
<path d="M6.13813 12.9129C6.42961 12.9129 6.6659 12.6891 6.6659 12.413C6.6659 12.1369 6.42961 11.9131 6.13813 11.9131C5.84664 11.9131 5.61035 12.1369 5.61035 12.413C5.61035 12.6891 5.84664 12.9129 6.13813 12.9129Z" fill="#818181"/>
<path d="M18.8046 12.9129C19.0961 12.9129 19.3324 12.6891 19.3324 12.413C19.3324 12.1369 19.0961 11.9131 18.8046 11.9131C18.5131 11.9131 18.2769 12.1369 18.2769 12.413C18.2769 12.6891 18.5131 12.9129 18.8046 12.9129Z" fill="#818181"/>
</g>
<defs>
<clipPath id="clip0_15_16231">
<rect width="22.5184" height="17.0639" fill="white" transform="translate(0.860352 0.415039)"/>
</clipPath>
</defs>
</svg>
