<svg width="12" height="19" viewBox="0 0 12 19" fill="none" xmlns="http://www.w3.org/2000/svg">
<path d="M5.83243 0.225586C2.8557 0.225586 0.43396 3.15339 0.43396 6.75212C0.43396 11.2183 5.26506 17.7748 5.47075 18.0518C5.66395 18.3119 6.00126 18.3115 6.19411 18.0518C6.3998 17.7748 11.2309 11.2183 11.2309 6.75212C11.2308 3.15339 8.80913 0.225586 5.83243 0.225586ZM5.83243 10.0358C4.33476 10.0358 3.11635 8.56276 3.11635 6.75212C3.11635 4.94149 4.33479 3.46848 5.83243 3.46848C7.33007 3.46848 8.54848 4.94153 8.54848 6.75216C8.54848 8.56279 7.33007 10.0358 5.83243 10.0358Z" fill="#1F5584"/>
</svg>
