<svg width="19" height="18" viewBox="0 0 19 18" fill="none" xmlns="http://www.w3.org/2000/svg">
<g clip-path="url(#clip0_15_16242)">
<path d="M18.1129 3.88637C18.3558 3.88637 18.5545 3.69816 18.5589 3.46813V0.837454C18.5589 0.603244 18.3602 0.415039 18.1129 0.415039H15.3357C15.0928 0.415039 14.8941 0.603244 14.8941 0.837454V1.75338H4.20895V0.837454C4.20895 0.607426 4.01026 0.419221 3.76741 0.415039H0.990142C0.747297 0.415039 0.548605 0.603244 0.544189 0.837454V3.46813C0.544189 3.69816 0.742881 3.88637 0.990142 3.88637H1.95711V14.0076H0.990142C0.747297 14.0076 0.548605 14.1958 0.544189 14.4258V17.0565C0.544189 17.2865 0.742881 17.4747 0.990142 17.4789H3.76741C4.01026 17.4789 4.20895 17.2907 4.20895 17.0565V16.1406H14.8941V17.0565C14.8941 17.2865 15.0928 17.4747 15.3357 17.4789H18.1129C18.3558 17.4789 18.5545 17.2907 18.5589 17.0565V14.4258C18.5589 14.1958 18.3602 14.0076 18.1129 14.0076H17.146V3.88637H18.1129ZM1.42726 3.0499V1.2515H3.32587V3.0499H1.42726ZM3.32587 16.6425H1.42726V14.8441H3.32587V16.6425ZM14.8941 14.4258V15.3041H4.20895V14.4258C4.20895 14.1958 4.01026 14.0076 3.76741 14.0076H2.84018V3.88637H3.76741C4.01026 3.88637 4.20895 3.69816 4.20895 3.46813V2.58985H14.8941V3.46813C14.8941 3.69816 15.0928 3.88637 15.3357 3.88637H16.2629V14.0076H15.3357C15.0928 14.0076 14.8941 14.1958 14.8941 14.4258ZM17.6758 14.8441V16.6425H15.7772V14.8441H17.6758ZM15.7772 3.0499V1.2515H17.6758V3.0499H15.7772Z" fill="#818181"/>
</g>
<defs>
<clipPath id="clip0_15_16242">
<rect width="18.0147" height="17.0639" fill="white" transform="translate(0.544189 0.415039)"/>
</clipPath>
</defs>
</svg>
